<?xml version="1.0" encoding="UTF-8"?>
<svg id="Layer_2" data-name="Layer 2" xmlns="http://www.w3.org/2000/svg" xmlns:xlink="http://www.w3.org/1999/xlink" viewBox="0 0 411.1 634.8">
  <defs>
    <style>
      .cls-1 {
        fill: none;
      }

      .cls-1, .cls-2, .cls-3, .cls-4, .cls-5, .cls-6, .cls-7, .cls-8, .cls-9, .cls-10, .cls-11, .cls-12 {
        stroke-miterlimit: 10;
      }

      .cls-1, .cls-3, .cls-5, .cls-10 {
        stroke: #231f20;
      }

      .cls-13 {
        fill: #4d4d4d;
      }

      .cls-13, .cls-14, .cls-15, .cls-16, .cls-17 {
        stroke-width: 0px;
      }

      .cls-2 {
        fill: #cba530;
        stroke: #fff;
      }

      .cls-18 {
        font-family: BerlinSansFBDemi-Bold, 'Berlin Sans FB Demi';
        font-size: 50.8px;
        font-weight: 700;
      }

      .cls-18, .cls-14 {
        fill: #f8ef1e;
      }

      .cls-3 {
        fill: url(#linear-gradient);
        stroke-width: .8px;
      }

      .cls-4 {
        fill: #ccc;
        opacity: .5;
        stroke: #f2f2f2;
        stroke-width: 12px;
      }

      .cls-5 {
        fill: #ffe2bb;
      }

      .cls-6 {
        fill: #00613c;
      }

      .cls-6, .cls-7, .cls-8, .cls-9, .cls-11, .cls-12 {
        stroke: #1a1a1a;
      }

      .cls-6, .cls-7, .cls-8, .cls-10, .cls-11, .cls-12 {
        stroke-width: 3px;
      }

      .cls-7 {
        fill: #006c40;
      }

      .cls-8 {
        fill: #ee2028;
      }

      .cls-15 {
        fill: #f49c5d;
        opacity: .4;
      }

      .cls-9 {
        fill: #bd9631;
        stroke-width: 2px;
      }

      .cls-16 {
        fill: #e1d4c2;
      }

      .cls-17 {
        fill: #f6956d;
      }

      .cls-10 {
        fill: #f1e6dd;
      }

      .cls-11 {
        fill: #077245;
      }

      .cls-12 {
        fill: #4e1212;
      }
    </style>
    <linearGradient id="linear-gradient" x1="74.9" y1="356.7" x2="76.7" y2="377.8" gradientTransform="translate(90.2 85.9)" gradientUnits="userSpaceOnUse">
      <stop offset="0" stop-color="#4d4d4d"/>
      <stop offset="0" stop-color="#4f4f4f"/>
      <stop offset=".2" stop-color="#777"/>
      <stop offset=".3" stop-color="#8f8f8f"/>
      <stop offset=".3" stop-color="#999"/>
      <stop offset=".4" stop-color="#909090"/>
      <stop offset=".5" stop-color="#797979"/>
      <stop offset=".7" stop-color="#535353"/>
      <stop offset=".8" stop-color="#333"/>
    </linearGradient>
  </defs>
  <g id="Layer_8" data-name="Layer 8">
    <polygon class="cls-7" points="324.4 632.5 1.5 587.3 3.7 165.2 336.9 193.9 324.4 632.5"/>
    <path class="cls-6" d="M403,141.5c-22,17.5-44.1,34.9-66.1,52.4-4.2,146.2-8.3,292.4-12.5,438.5l63.8-29.3c7.8-9.8,12.1-15.1,12.1-15.1s4.8-20.9,4.8-20.9c0,0,0,0,0,0,0,0,1.5-22.9,1.6-23.8,5.1-71.4,1.9-201.3,1.9-201.3-2-82-4-149.4-5.6-200.5Z"/>
    <path class="cls-6" d="M403,141.5c-22,17.5-44.1,34.9-66.1,52.4,11.5-44.6,23-89.2,34.6-133.8,10.5,27.1,21.1,54.3,31.6,81.4Z"/>
    <path class="cls-11" d="M371.7,23.7c-65.8,5.9-144,6.8-230.9-4.8C107.2,14.4,75.8,8.5,46.5,1.8L3.7,165.2c111,9.6,222.1,19.2,333.1,28.8,8.4-30.5,15.6-54.8,20.6-71.5,6.2-20.7,10-32.5,12.5-50.2,2.8-20.1,2.5-37,1.6-48.6ZM294.6,71.1h0c-.6,9.9-9.1,17.5-19,17l-161.5-9.2c-9.9-.6-17.5-9.1-17-19h0c.6-9.9,9.1-17.5,19-17l161.5,9.2c9.9.6,17.5,9.1,17,19Z"/>
    <path class="cls-9" d="M372,51.7c-111.4-5.4-222.9-10.8-334.3-16.2,2.9-11.2,5.9-22.5,8.8-33.7,52,11.9,114.6,22,185.8,25.1,51.3,2.3,98.1.5,139.3-3.3-.6,7.6-.7,15.7,0,24.3,0,1.3.2,2.5.3,3.8Z"/>
    <path class="cls-8" d="M335.5,266.4c-110.7-10-221.5-19.9-332.2-29.9.1-23.8.3-47.5.4-71.3l332.6,28.8c-.3,24.2-.5,48.3-.8,72.5Z"/>
    <g>
      <g>
        <ellipse class="cls-10" cx="163.7" cy="558.3" rx="117.3" ry="34.6"/>
        <ellipse class="cls-16" cx="166.3" cy="561.2" rx="100.4" ry="24.5"/>
      </g>
      <g>
        <path class="cls-5" d="M295.9,456.2c-25.1-16.1-46.4-.7-46.4-.7l-12.2,82.4c7.9,7.9,37-22.7,37-22.7,32.8-.3,46.7-42.9,21.6-59ZM275.4,502.6c-10.3-.6-17.5-10.1-16-21.2,1.5-11.1,11.1-19.7,21.4-19.1,10.3.6,17.5,10.1,16,21.2-1.5,11.1-11.1,19.7-21.4,19.1Z"/>
        <path class="cls-1" d="M280.8,462.3c-10.3-.6-19.9,8-21.4,19.1-1.5,11.1,5.7,20.6,16,21.2,10.3.6,19.9-8,21.4-19.1,1.5-11.1-5.7-20.6-16-21.2Z"/>
      </g>
      <path class="cls-5" d="M77.9,449.8l-1.8,43s15.6,67.9,32.4,71.4c0,0,49.2,30,111.9,1.9,0,0,34.5-32.7,30.3-113.8,0,0-10-21.1-55.4-25.3-8.5-.8-18.4-2.3-29.5-1.6-.2,0-23.5,1.1-23.7,1.1-71.1,5.1-64.1,23.2-64.1,23.2Z"/>
      <path class="cls-15" d="M79.2,457.7s6.5,67.4,36.8,65.1c0,0,60.5,20.4,117.7-16.2l15.4-39.4s-1.8,18.7-3.1,31.4c-.7,6.9-1.5,5.4-2.4,14-2.2,20.6-11.5,44-25,51.9-15.9,9.4-49,14.1-71.4,11.1-19.1-2.6-35.2-11.6-35.2-11.6,0,0-28-7.7-33.4-71.7s.2-21.5.6-34.7Z"/>
      <path class="cls-17" d="M94.5,445.4l.8,4.8s11.3-6.9,17.7-8.5c3.7-.9,45.2-4.9,79.7-2.5,24.1,1.7,41.5,8.3,42.8,11.3,0,0,3.2,2.2,1.4-1.3-.4-.7-2.2-7.6-11.1-11.4-9.8-4.2-24.6-5.9-24.6-5.9,0,0-76.1-6.5-106.5,13.5Z"/>
      <g>
        <rect class="cls-13" x="137.9" y="404.9" width="81.3" height="52.1" transform="translate(89.1 -26.9) rotate(11.4)"/>
        <rect class="cls-4" x="132.4" y="401.4" width="92.2" height="59" rx="17.8" ry="17.8" transform="translate(89.1 -26.9) rotate(11.4)"/>
      </g>
      <ellipse class="cls-3" cx="165.9" cy="451.5" rx="69.4" ry="15.2"/>
    </g>
    <g>
      <path class="cls-12" d="M295.5,398.1c-88.8-7.4-177.6-14.8-266.4-22.2,1.9-45.5,3.7-91.1,5.6-136.6,90,8.2,180.1,16.5,270.1,24.7-3.1,44.7-6.2,89.4-9.2,134.1Z"/>
      <g>
        <path class="cls-2" d="M75.2,270.9l7.3,23.7c.2.8.8,1.4,1.6,1.7.5.2.8.7.7,1.4,0,0,0,.6-.2,1.4,0,.4-.6.5-1.5.5l-13.7-1c-.5,0-.8-.1-1-.3-.2-.1-.2-.5-.2-1.1,0,0,0-.5.2-1.2,0-.3.4-.5.9-.6.7-.1,1.1-.4,1.2-.8,0-.1,0-.3,0-.4l-4-12.5-1.3,1.7-.7,9.8c0,.8.4,1.5,1.4,2,.4.2.6.6.6,1.3,0,.7-.2,1.2-.4,1.5-.2.2-.7.3-1.4.3l-14.4-1c-.5,0-.9-.1-1.1-.3-.2-.2-.3-.6-.2-1.3,0-.7.2-1.2.3-1.3.2-.2.5-.3,1-.4.9-.2,1.3-.6,1.4-1.2l2.1-28.9c0-.7-.3-1.3-1.1-1.7-.5-.3-.9-.5-1-.7-.1-.2-.1-.5-.1-1,0-1.1.2-1.7.3-1.9.1-.2.5-.2,1-.2l15.7,1.1c.7,0,1.1.3,1.1.7,0,1.3-.2,2.1-.3,2.2,0,.2-.4.4-1,.6-1.1.3-1.7.8-1.8,1.4l-.9,12.3,8.3-11.4c.5-.6.7-1.1.7-1.4,0-.2-.2-.5-.8-.8-.6-.3-.9-.6-1-.8-.1-.2-.1-.8,0-1.6,0-.6.4-.9,1.1-.9l9.2.7c.5,0,.8.1,1,.3s.1.6,0,1.3c0,.7-.2,1.2-.3,1.3-.2.1-.6.3-1.4.5-.6.1-1,.2-1.2.3-.2,0-.4.3-.6.6l-5.3,6.2Z"/>
        <path class="cls-2" d="M107.1,261.6c3.4.2,6.2,1.2,8.6,3,2.4,1.8,4.2,4.2,5.6,7.2,1.4,3,1.9,6.8,1.5,11.4-.4,5.5-2.3,10-5.6,13.6-3.3,3.6-7.7,5.1-13.3,4.8-5.3-.4-9.3-2.5-12-6.4-2.8-3.9-3.9-8.8-3.5-14.6.4-6,2.3-10.7,5.7-14.2,3.4-3.5,7.7-5,13-4.7ZM109.4,267.5c.1-2-.7-3.1-2.6-3.2-.8,0-1.5.1-2.1.6-.6.5-.9,1-1,1.8l-2.1,29.1c0,1,.2,1.7.7,2.3.5.5,1.2.8,1.9.9.9,0,1.6-.2,2.1-.7.6-.5.9-1.1.9-1.8l2.1-28.9Z"/>
        <path class="cls-2" d="M141.2,290.5l-.6,8c0,.9.5,1.6,1.6,2,.5.2.9.4,1.1.7.2.3.3.7.2,1.4,0,.6-.2,1-.5,1.2-.3.1-.8.2-1.5.1l-15.6-1.1c-.8,0-1.2-.6-1.1-1.6,0-.8.2-1.3.3-1.5.1-.2.5-.3,1.2-.4.6,0,1-.2,1.2-.3.2-.1.3-.4.3-.8l2.1-29.1c0-.7-.5-1.3-1.7-1.8-.6-.3-.9-.7-.9-1.2v-1.1c0-.5.2-.8.4-.9.2-.1.6-.2,1.2-.1l17.7,1.3c5.1.4,9,1.8,11.9,4.3,2.9,2.5,4.1,5.7,3.9,9.8-.2,2.3-.8,4.2-1.8,5.9-1.1,1.7-2.3,2.9-3.8,3.7-1.5.7-3.2,1.3-5,1.7-1.9.4-3.9.5-6,.4l-4.3-.3ZM142.8,267.5l-1.5,20.2,2.4.2c.8,0,1.6-.2,2.3-.8.7-.6,1.1-1.6,1.2-3.1l.9-12c.2-2.7-1-4.1-3.6-4.3h-1.8Z"/>
        <path class="cls-2" d="M165.3,268.5v-1.3c.1-.5.5-.7,1.3-.7l16.5,1.2c.6,0,1,.1,1.2.3.2.1.2.5.2,1,0,.9-.2,1.4-.3,1.6-.1.2-.4.3-.9.3-1.4,0-2.2.7-2.3,1.8l-2.1,29c0,.6.4,1.1,1.4,1.6.7.3,1,.5,1.2.7.1.2.2.5.1.9v.9c-.1.5-.2.8-.3.9-.1,0-.5,0-1.1,0l-16.8-1.2c-.6,0-1-.2-.9-.6,0-1.2.2-1.9.3-2.1.1-.2.5-.4,1.2-.5,1.3-.2,1.9-.6,2-1.2l2.1-28.6c0-.7,0-1.2-.2-1.6-.2-.4-.7-.7-1.5-1-.6-.2-.9-.4-1-.5-.1-.1-.2-.4-.1-.8Z"/>
        <path class="cls-2" d="M227.1,281.9l7.3,23.7c.2.8.8,1.4,1.6,1.7.5.2.8.7.7,1.4,0,0,0,.6-.2,1.4,0,.4-.6.5-1.5.5l-13.7-1c-.5,0-.8-.1-1-.3-.2-.1-.2-.5-.2-1.1,0,0,0-.5.2-1.2,0-.3.4-.5.9-.6.7-.1,1.1-.4,1.2-.8,0-.1,0-.3,0-.4l-4-12.5-1.3,1.7-.7,9.8c0,.8.4,1.5,1.4,2,.4.2.6.6.6,1.3,0,.7-.2,1.2-.4,1.5-.2.2-.7.3-1.4.3l-14.4-1c-.5,0-.9-.1-1.1-.3-.2-.2-.3-.6-.2-1.3,0-.7.2-1.2.3-1.3.2-.2.5-.3,1-.4.9-.2,1.3-.6,1.4-1.2l2.1-28.9c0-.7-.3-1.3-1.1-1.7-.5-.3-.9-.5-1-.7-.1-.2-.1-.5-.1-1,0-1.1.2-1.7.3-1.9.1-.2.5-.2,1-.2l15.7,1.1c.7,0,1.1.3,1.1.7,0,1.3-.2,2.1-.3,2.2s-.4.4-1,.6c-1.1.3-1.7.8-1.8,1.4l-.9,12.3,8.3-11.4c.5-.6.7-1.1.7-1.4,0-.2-.2-.5-.8-.8-.6-.3-.9-.6-1-.8-.1-.2-.1-.8,0-1.6,0-.6.4-.9,1.1-.9l9.2.7c.5,0,.8.1,1,.3s.1.6,0,1.3c0,.7-.2,1.2-.3,1.3-.2.1-.6.3-1.4.5-.6.1-1,.2-1.2.3-.2,0-.4.3-.6.6l-5.3,6.2Z"/>
        <path class="cls-2" d="M255.2,303.6l-8.6-.6-.6,2.2s0,.1,0,.2c-.2.5-.4.9-.4,1.2,0,.6.5,1.1,1.5,1.6.6.2.9.5,1,.7.1.2.2.6.1,1.1,0,.7-.1,1.1-.2,1.2-.1.1-.4.2-.8.2l-9.1-.7c-.5,0-.7-.4-.7-1.2,0-.9.5-1.6,1.4-2.1.8-.4,1.3-.9,1.4-1.5l8.4-27.9c.1-.4.2-.8.3-1.1,0-.5-.4-1-1.4-1.4-.4-.2-.6-.7-.6-1.3,0-.9.2-1.4.3-1.6.2-.2.5-.3,1.1-.2l13.2.9c.8,0,1.3.4,1.6.9.3.6.5,1.7.7,3.5,0,.7.2,1.4.3,2.1l3.8,26.9c.2,1.3.8,2.3,1.8,3.1.3.2.5.4.6.5,0,.1.1.4,0,1,0,.8-.2,1.3-.3,1.5s-.5.2-1.1.2l-15.3-1.1c-.5,0-.7-.4-.6-1,0-.8.1-1.2.3-1.4.1-.2.5-.4,1-.6.8-.3,1.3-.7,1.3-1.3,0-.6-.1-1.9-.5-4ZM252.6,281.7l-5.2,18.6,7.7.6-2.4-19.1Z"/>
        <path class="cls-2" d="M274.5,276.3v-1.3c.1-.5.5-.7,1.3-.7l16.5,1.2c.6,0,1,.1,1.2.3.2.1.2.5.2,1,0,.9-.2,1.4-.3,1.6-.1.2-.4.3-.9.3-1.4,0-2.2.7-2.3,1.8l-2.1,29c0,.6.4,1.1,1.4,1.6.6.3,1,.5,1.2.7.1.2.2.5.1.9v.9c-.1.5-.2.8-.3.9-.1,0-.5,0-1.1,0l-16.8-1.2c-.6,0-1-.2-.9-.6,0-1.2.2-1.9.3-2.1.1-.2.6-.4,1.3-.5,1.3-.2,1.9-.6,2-1.2l2.1-28.6c0-.7,0-1.2-.2-1.6-.2-.4-.7-.7-1.5-1-.6-.2-.9-.4-1-.5-.1-.1-.2-.4-.1-.8Z"/>
        <path class="cls-2" d="M97.8,332.1l7.3,23.7c.2.8.8,1.4,1.6,1.7.5.2.8.7.7,1.4,0,0,0,.6-.2,1.4,0,.4-.6.5-1.5.5l-13.7-1c-.5,0-.8-.1-1-.3-.2-.1-.2-.5-.2-1.1,0,0,0-.5.2-1.2,0-.3.4-.5.9-.6.7-.1,1.1-.4,1.2-.8,0-.1,0-.3,0-.4l-4-12.5-1.3,1.7-.7,9.8c0,.8.4,1.5,1.4,2,.4.2.6.6.6,1.3,0,.7-.2,1.2-.4,1.5-.2.2-.7.3-1.4.3l-14.4-1c-.5,0-.9-.1-1.1-.3-.2-.2-.3-.6-.2-1.3,0-.7.2-1.2.3-1.3.2-.2.5-.3,1-.4.9-.2,1.3-.6,1.4-1.2l2.1-28.9c0-.7-.3-1.3-1.1-1.7-.5-.3-.9-.5-1-.7-.1-.2-.1-.5-.1-1,0-1.1.2-1.7.3-1.9.1-.2.5-.2,1-.2l15.7,1.1c.7,0,1.1.3,1.1.7,0,1.3-.2,2.1-.3,2.2,0,.2-.4.4-1,.6-1.1.3-1.7.8-1.8,1.4l-.9,12.3,8.3-11.4c.5-.6.7-1.1.7-1.4,0-.2-.2-.5-.8-.8-.6-.3-.9-.6-1-.8-.1-.2-.1-.8,0-1.6,0-.6.4-.9,1.1-.9l9.2.7c.5,0,.8.1,1,.3.1.2.1.6,0,1.3,0,.7-.2,1.2-.3,1.3-.2.1-.6.3-1.4.5-.6.1-1,.2-1.2.3-.2,0-.4.3-.6.6l-5.3,6.2Z"/>
        <path class="cls-2" d="M129.7,322.8c3.4.2,6.2,1.2,8.6,3,2.4,1.8,4.2,4.2,5.6,7.2,1.4,3,1.9,6.8,1.5,11.4-.4,5.5-2.3,10-5.6,13.6-3.3,3.6-7.7,5.1-13.3,4.8-5.3-.4-9.3-2.5-12-6.4-2.8-3.9-3.9-8.8-3.5-14.6.4-6,2.3-10.7,5.7-14.2,3.4-3.5,7.7-5,13-4.7ZM132.1,328.7c.1-2-.7-3.1-2.6-3.2-.8,0-1.5.1-2.1.6-.6.5-.9,1-1,1.8l-2.1,29.1c0,1,.2,1.7.7,2.3.5.5,1.2.8,1.9.9.9,0,1.6-.2,2.1-.7.6-.5.9-1.1.9-1.8l2.1-28.9Z"/>
        <path class="cls-2" d="M163.8,351.6l-.6,8c0,.9.5,1.6,1.6,2,.5.2.9.4,1.1.7.2.3.3.7.2,1.4,0,.6-.2,1-.5,1.2-.3.1-.8.2-1.5.1l-15.6-1.1c-.8,0-1.2-.6-1.1-1.6,0-.8.2-1.3.3-1.5.1-.2.5-.3,1.2-.4.6,0,1-.2,1.2-.3.2-.1.3-.4.3-.8l2.1-29.1c0-.7-.5-1.3-1.7-1.8-.6-.3-.9-.7-.9-1.2v-1.1c0-.5.2-.8.4-.9s.6-.2,1.2-.1l17.7,1.3c5.1.4,9,1.8,11.9,4.3,2.9,2.5,4.1,5.7,3.9,9.8-.2,2.3-.8,4.2-1.8,5.9-1.1,1.7-2.3,2.9-3.8,3.7-1.5.7-3.2,1.3-5,1.7-1.9.4-3.9.5-6,.4l-4.3-.3ZM165.4,328.7l-1.5,20.2,2.4.2c.8,0,1.6-.2,2.3-.8.7-.6,1.1-1.6,1.2-3.1l.9-12c.2-2.7-1-4.1-3.6-4.3h-1.8Z"/>
        <path class="cls-2" d="M187.9,329.6v-1.3c.1-.5.5-.7,1.3-.7l16.5,1.2c.6,0,1,.1,1.2.3.2.1.2.5.2,1,0,.9-.2,1.4-.3,1.6-.1.2-.4.3-.9.3-1.4,0-2.2.7-2.3,1.8l-2.1,29c0,.6.4,1.1,1.4,1.6.7.3,1,.5,1.2.7.1.2.2.5.1.9v.9c-.1.5-.2.8-.3.9-.1,0-.5,0-1.1,0l-16.8-1.2c-.6,0-1-.2-.9-.6,0-1.2.2-1.9.3-2.1s.5-.4,1.3-.5c1.3-.2,1.9-.6,2-1.2l2.1-28.6c0-.7,0-1.2-.2-1.6-.2-.4-.7-.7-1.5-1-.6-.2-.9-.4-1-.5-.1-.1-.2-.4-.1-.8Z"/>
        <path class="cls-2" d="M244.1,331c3.4.2,6.2,1.2,8.6,3,2.4,1.8,4.2,4.2,5.6,7.2,1.4,3,1.9,6.8,1.5,11.4-.4,5.5-2.3,10-5.6,13.6-3.3,3.6-7.7,5.1-13.3,4.8-5.3-.4-9.3-2.5-12-6.4-2.8-3.9-3.9-8.8-3.5-14.6.4-6,2.3-10.7,5.7-14.2,3.4-3.5,7.7-5,13-4.7ZM246.4,336.9c.1-2-.7-3.1-2.6-3.2-.8,0-1.5.1-2.1.6-.6.5-.9,1-1,1.8l-2.1,29.1c0,1,.2,1.7.7,2.3.5.5,1.2.8,1.9.9.9,0,1.6-.2,2.1-.7.6-.5.9-1.1.9-1.8l2.1-28.9Z"/>
      </g>
      <text class="cls-18" transform="translate(13 218.5) rotate(4.1)"><tspan x="0" y="0">Deal Pack</tspan></text>
      <path class="cls-14" d="M400.1,303.6c-8.1,2.5-15.9,5.7-23.5,9.5s-15.3,8.8-23.1,13.1-8.9,4.7-13.4,7-.2,3.4,1.5,2.6c7.9-3.9,15.6-8.1,23.2-12.5s14.7-8.6,22.6-11.9,8.8-3.5,13.4-4.9,1.1-3.5-.8-2.9h0Z"/>
      <path class="cls-14" d="M398.8,325.5c-7.4,2.5-14.6,5.8-21.5,9.6s-13.7,8.7-20.6,12.9-8.1,4.8-12.2,7-.2,3.5,1.5,2.6c7.1-3.9,14.1-8.1,21-12.5s13.2-8.5,20.4-11.9,8.1-3.5,12.3-4.9,1-3.5-.8-2.9h0Z"/>
      <path class="cls-14" d="M400.1,343.2c-7.4,2.5-14.6,5.8-21.5,9.6s-13.7,8.7-20.6,12.9-8.1,4.8-12.2,7-.2,3.5,1.5,2.6c7.1-3.9,14.1-8.1,21-12.5s13.2-8.5,20.4-11.9,8.1-3.5,12.3-4.9,1-3.5-.8-2.9h0Z"/>
      <path class="cls-14" d="M401.5,360.9c-7.4,2.5-14.6,5.8-21.5,9.6s-13.7,8.7-20.6,12.9-8.1,4.8-12.2,7-.2,3.5,1.5,2.6c7.1-3.9,14.1-8.1,21-12.5s13.2-8.5,20.4-11.9,8.1-3.5,12.3-4.9,1-3.5-.8-2.9h0Z"/>
      <path class="cls-14" d="M401.5,382.9c-7.4,2.5-14.6,5.8-21.5,9.6s-13.7,8.7-20.6,12.9-8.1,4.8-12.2,7-.2,3.5,1.5,2.6c7.1-3.9,14.1-8.1,21-12.5s13.2-8.5,20.4-11.9,8.1-3.5,12.3-4.9,1-3.5-.8-2.9h0Z"/>
    </g>
  </g>
</svg>